PathFileType	4	(X/Y/Z)	/Users/visionmauri/4_2_1_f_1_Sports2D/4_2_1_f_1_Sports2D_px_person00.trc
DataRate	CameraRate	NumFrames	NumMarkers	Units	OrigDataRate	OrigDataStartFrame	OrigNumFrames
30.0	30.0	12	22	m	30.0	191	382
Frame#	Time	Hip			RHip			RKnee			RAnkle			RBigToe			RSmallToe			RHeel			LHip			LKnee			LAnkle			LBigToe			LSmallToe			LHeel			Neck			Head			Nose			RShoulder			RElbow			RWrist			LShoulder			LElbow			LWrist			
		X1	Y1	Z1	X2	Y2	Z2	X3	Y3	Z3	X4	Y4	Z4	X5	Y5	Z5	X6	Y6	Z6	X7	Y7	Z7	X8	Y8	Z8	X9	Y9	Z9	X10	Y10	Z10	X11	Y11	Z11	X12	Y12	Z12	X13	Y13	Z13	X14	Y14	Z14	X15	Y15	Z15	X16	Y16	Z16	X17	Y17	Z17	X18	Y18	Z18	X19	Y19	Z19	X20	Y20	Z20	X21	Y21	Z21	X22	Y22	Z22
191	6.383377077865266	603.3799298799474	849.0948762843384	0.0	567.5877516963682	842.0059081771316	0.0	602.5864797915935	1018.8611720864003	0.0	593.0816061595581	1239.7170739667993	0.0	679.6800771715133	1287.9324791080503	0.0	652.5572523285562	1293.8352587941818	0.0	580.7003795957685	1280.398371658367	0.0	644.3834417466842	850.8829507266889	0.0	653.8867625810319	1030.2792938751595	0.0	597.5819410753634	1216.0552631781202	0.0	675.6206386132039	1277.9480642358458	0.0	672.1733669950842	1264.1665893843315	0.0	571.27095018877	1245.4512318372545	0.0	639.8832548823885	588.4502789062678	0.0	682.3202652238336	470.0822310091106	0.0	700.3940823924396	548.3592289566786	0.0	586.6103023667156	614.4187546597028	0.0	579.9221710180051	760.9717886251921	0.0	693.5124946638919	830.1989503836265	0.0	682.5852341245626	609.6260208062424	0.0	692.5362658296775	722.4274780947559	0.0	730.4982377990723	811.0352888150051	0.0
192	6.416797900262466	605.5141888477625	850.3264107286302	0.0	569.2474007339936	842.8278907630319	0.0	604.1425435754379	1020.482070829216	0.0	593.0272569905055	1239.2082735722204	0.0	679.3857326624462	1287.8731873344768	0.0	650.6824532291388	1293.611156780284	0.0	581.3841362081059	1279.458440100167	0.0	646.5120263605653	850.3423582218613	0.0	652.292979064565	1030.4244277362711	0.0	596.2030420342367	1215.8612193484983	0.0	674.5484953374179	1277.5495462774322	0.0	671.1386447978116	1264.2118741797387	0.0	571.2462787707453	1245.9859649367816	0.0	639.57468288379	588.4943900517048	0.0	680.2814643408258	471.2306017393264	0.0	697.3444538333592	548.456807947277	0.0	583.0657631299856	613.8146296605219	0.0	565.7881527734531	757.3837074802088	0.0	682.8982639540311	829.0722575941944	0.0	684.5414683938408	609.4718953828572	0.0	694.8921878856202	722.9458892195515	0.0	729.4016869072843	811.7145251130419	0.0
193	6.450218722659667	607.9587805766538	850.7460429285959	0.0	571.1289022425691	842.0760423535173	0.0	607.7564899583921	1020.9624578224111	0.0	590.0162291853824	1239.2645156005806	0.0	679.0060430704901	1288.235145177303	0.0	649.7837229807387	1294.0482845456393	0.0	578.0120334714182	1278.0002537245707	0.0	649.9281664561156	849.0810722403083	0.0	649.8885571513125	1032.1962109587182	0.0	596.4412673548636	1217.2314329800815	0.0	674.2002400798924	1278.30134053763	0.0	670.7995764926497	1264.6818016426566	0.0	571.5672616484148	1247.4320034782722	0.0	638.4102095253284	588.1656536153922	0.0	679.145223268295	472.8711372165845	0.0	695.3223608938208	548.5403622325945	0.0	579.7589845181143	611.943290804267	0.0	550.7349265369431	753.2701711664721	0.0	667.2604627986433	828.3980931846166	0.0	685.5316922094881	608.1208559363581	0.0	696.5009591726622	722.8748129597977	0.0	728.3719266981908	813.9620812307235	0.0
194	6.483639545056867	609.4752150320321	850.5171633088938	0.0	572.3244081059638	841.1958788353761	0.0	610.3669050143662	1018.3105843758063	0.0	586.5355782712427	1238.3169956706993	0.0	676.4025790846578	1289.014303036836	0.0	649.6672359360759	1294.646879820643	0.0	573.531204019352	1276.2838372518584	0.0	652.3429194065847	848.3191864169571	0.0	647.2888982462246	1034.5330834426104	0.0	598.4581378431328	1218.7133532519827	0.0	673.3732945011633	1279.5159211985629	0.0	670.9298556843677	1265.306337786459	0.0	572.8024930085194	1247.9715021633622	0.0	636.8194624251485	587.7999308054802	0.0	678.8603548114787	473.75203616374307	0.0	694.0754890076429	548.5808699830413	0.0	576.0987356899352	609.9261217018883	0.0	536.1770195234154	748.6580005269168	0.0	643.5845348848087	826.5600376020665	0.0	686.0144988796183	606.9091268066975	0.0	696.6026379233733	722.6784658839482	0.0	727.7469769201753	817.3678318193677	0.0
195	6.517060367454067	609.3070439447339	850.3023446246655	0.0	572.1185734739211	841.6607602906754	0.0	609.7524553921277	1013.3340908195199	0.0	584.7548835438258	1236.8878147513233	0.0	671.9384467789007	1289.7957876954076	0.0	649.0027225280827	1294.8615442256876	0.0	570.9333718074836	1275.4262907504437	0.0	651.663190694211	848.6548448037435	0.0	644.9383101089434	1035.8683070934248	0.0	600.4862077701483	1219.5620920740535	0.0	671.6142803453862	1279.9925506836464	0.0	670.6384127420431	1265.240434540511	0.0	575.0441177737201	1247.1200914634683	0.0	635.6042433800535	587.6455509389739	0.0	678.9510790744081	472.87866950750794	0.0	693.1764618800088	548.5281957937847	0.0	572.3384406422491	609.8409521018481	0.0	523.1852138002828	743.5643431645366	0.0	614.0890700849536	823.6282045511028	0.0	686.608530191636	607.1823201752015	0.0	696.2086984131092	723.8902605503116	0.0	727.5834863866587	820.2497351803773	0.0
196	6.550481189851268	608.4192883828393	851.3364963903446	0.0	571.3105319586082	844.40329203406	0.0	608.1605300693958	1011.3488630100786	0.0	585.2258949721326	1236.092406313017	0.0	668.3401264498538	1289.409325996927	0.0	647.5327200275862	1293.6561682256868	0.0	570.9953855127416	1274.2295830950984	0.0	648.88100946909	851.002314801991	0.0	642.9207055619302	1035.8416013825286	0.0	600.02188250405	1220.87454671982	0.0	669.339895479048	1279.9343499150473	0.0	669.2952731479559	1264.8092475423566	0.0	575.5435066627696	1248.3138189013316	0.0	634.6561525878693	587.8584749262722	0.0	679.3291575558496	470.67505676894933	0.0	692.38383844038	548.3861618974264	0.0	569.1955226545426	611.4958496813832	0.0	511.70329144769596	738.3144685303746	0.0	583.8242608682544	821.5591435044385	0.0	686.9557964720908	608.32689732775	0.0	695.8805094790308	726.3661410004366	0.0	727.7156339452448	821.4223672610025	0.0
197	6.583902012248468	607.5348036093422	853.7882041625453	0.0	570.7918287413333	848.9730536681554	0.0	607.9538751044283	1015.0803398914048	0.0	587.5813820526754	1235.38908071316	0.0	666.8732203051518	1286.8302371439488	0.0	646.2655708340576	1290.7223321758315	0.0	573.0917073117269	1270.0191060558982	0.0	646.0100215077556	855.1894988460704	0.0	641.2259876375056	1034.850002758629	0.0	596.2235641486917	1223.1228389079106	0.0	666.3128923823125	1279.2865223316019	0.0	666.6753244680905	1264.6098128085835	0.0	572.438998836472	1252.9586194458675	0.0	633.3878468917618	588.107673249741	0.0	679.8560665662852	468.491023627649	0.0	691.2275713602445	548.1488545813085	0.0	566.7536876209858	612.8144983756517	0.0	501.3594685170874	733.4015592044846	0.0	556.1547044468699	821.1761744614619	0.0	686.878433585819	609.3068197873235	0.0	695.2648398415049	728.6377560631752	0.0	727.8526836734038	821.6409491721608	0.0
198	6.617322834645668	606.0545833689839	855.7217912799659	0.0	569.3386666150067	852.4326524552163	0.0	607.3461221351002	1018.8603534430465	0.0	589.5661225530962	1233.6558831733657	0.0	665.2888060349641	1282.978735576255	0.0	644.075225998303	1287.7862972206788	0.0	574.8181237951735	1263.519314840814	0.0	643.9345138701876	858.1851167262333	0.0	640.0482648052762	1033.356932103494	0.0	592.2023542678388	1225.2232770558926	0.0	663.0717683692573	1276.7181323237726	0.0	663.8536717696921	1263.4017912421007	0.0	570.1401986954369	1256.4289022324206	0.0	632.026887195125	587.9225078893783	0.0	679.5818373896674	467.4144462725088	0.0	689.2963598696236	547.8211297580708	0.0	564.6964962081091	612.9683246824978	0.0	492.8156903752256	729.0307467679341	0.0	531.77261637118	821.1232214676905	0.0	687.0228778438195	609.9021444665518	0.0	694.5494292263476	729.907918288935	0.0	727.6761361318963	821.597857810443	0.0
199	6.650743657042868	603.5704396955841	855.3678624898824	0.0	565.2101424359688	852.1087359722968	0.0	603.6256581727677	1015.234285719788	0.0	587.8576437571169	1230.001894170913	0.0	658.7943271397781	1279.8716193223902	0.0	636.687527285398	1285.7052404203869	0.0	572.5120004224159	1258.0811699240796	0.0	642.5706116171993	857.7281349910178	0.0	639.2724928841482	1032.0173116931262	0.0	591.852279734448	1225.9613299631774	0.0	661.3920519945183	1272.1249789709684	0.0	662.4016593364453	1260.1157962892496	0.0	572.8478435309985	1254.6806321505042	0.0	631.3081302818151	587.3591811147768	0.0	677.6893487278459	467.3491111397191	0.0	686.4383567788774	547.3947959297402	0.0	563.0179444541848	612.1413832018297	0.0	487.1838535169354	724.5342951638529	0.0	509.5258320180458	819.5132382830756	0.0	687.8896956216992	610.4321647394164	0.0	694.761611643372	730.9882599125078	0.0	727.2817302275613	821.3362796033775	0.0
200	6.684164479440069	600.5297137908964	852.8359214719537	0.0	559.342865815499	848.6054085463653	0.0	597.8272664567702	1004.2684470964216	0.0	582.2065851147238	1223.4529072843147	0.0	644.6725313791748	1277.895781426268	0.0	622.7320951957137	1281.869542825094	0.0	565.430699604555	1254.3325609496408	0.0	641.1047233727177	855.5811683178126	0.0	638.399058618508	1031.3120103015012	0.0	594.1103689104528	1225.0342072743033	0.0	661.1943959343291	1268.182609504011	0.0	661.8220054684529	1256.615283212668	0.0	577.5097620163026	1250.4764234342115	0.0	631.1565995007076	586.6544803808989	0.0	674.2646390883885	467.2930231001458	0.0	682.4297060817098	546.5291092515521	0.0	561.5952399975693	610.2780866494094	0.0	484.58713286515916	719.7737804059713	0.0	487.932504200546	816.5261671625924	0.0	689.4758136744091	611.3206674821038	0.0	696.2052299730767	732.4824991264743	0.0	727.2615091691481	820.8959357040249	0.0
201	6.7175853018372695	597.5790328820735	849.6885231975339	0.0	554.5350358726376	844.8899967908321	0.0	592.807870811187	993.6773725304948	0.0	575.7118350602617	1217.0611336011016	0.0	626.9150731657403	1276.4610506907425	0.0	607.0589563269226	1276.6862650166179	0.0	557.0725344662953	1251.0802448962286	0.0	639.0167214198441	854.5226088455443	0.0	637.0627903216481	1031.45102576993	0.0	595.2330273727147	1222.4272711513477	0.0	660.6702014219759	1266.6863326773394	0.0	660.698197822476	1254.850515628508	0.0	580.0801201365168	1247.948394781284	0.0	630.7652001191561	585.9156284982525	0.0	669.8673674217998	466.5689505317775	0.0	677.2976808232227	544.9092295028057	0.0	559.8688105102403	608.1767812080867	0.0	483.8218549229427	716.4042291150528	0.0	467.1014384940864	814.8143953724373	0.0	691.5286816193144	612.6136324260722	0.0	697.8466007855058	733.85501405934	0.0	727.9102416641571	820.5193399300462	0.0
202	6.75100612423447	595.4366073567704	847.8691044322413	0.0	551.9817115518881	843.3414919194042	0.0	588.3712969268726	991.0495485697064	0.0	570.4455813420655	1218.447677552882	0.0	613.6414006315151	1277.4991575898428	0.0	595.0914253352086	1277.5529428382847	0.0	550.4628358908199	1250.621588771042	0.0	637.0091111615674	854.8631215700542	0.0	635.1879899535713	1032.7842753003117	0.0	594.7796572336321	1218.4816567615785	0.0	659.7761014296797	1266.0929187263073	0.0	659.7482456505347	1254.0598453458706	0.0	580.9597530803585	1246.6778989824616	0.0	629.6407163595427	585.4829580068656	0.0	665.375845836477	465.2357467530292	0.0	671.5607352442498	543.4461480430745	0.0	557.4515121963877	607.4343385481721	0.0	483.0548341466467	715.6091812704287	0.0	448.9757532749903	815.828707453947	0.0	693.4258764461923	613.6830096847251	0.0	699.1820814076666	734.7498300174068	0.0	728.8918985984138	820.4661906404377	0.0
